<svg xmlns="http://www.w3.org/2000/svg" width="123.011" height="123.04" viewBox="0 0 123.011 123.04">
  <g id="LogoV2" transform="translate(0.514 0.512)">
    <g id="Plan_E" data-name="Plan E" transform="translate(0 0)">
      <path id="Tracé_3" data-name="Tracé 3" d="M193.587,161.647a30.5,30.5,0,0,0-27.7,30.371c0-16.842-11.042-30.5-27.884-30.5,16.34,0,27.065-12.852,27.847-29A30.5,30.5,0,0,0,193.587,161.647Z" transform="translate(-104.883 -100.519)" fill="none" stroke="#707070" stroke-miterlimit="10" stroke-width="1"/>
      <path id="Tracé_4" data-name="Tracé 4" d="M314.952,35.539a30.51,30.51,0,0,1-21.31,29.089,39.47,39.47,0,0,0-3.457-14.86,15.314,15.314,0,1,0-19.9-19.9,39.471,39.471,0,0,0-14.938-3.458,30.5,30.5,0,0,1,59.6,9.127Z" transform="translate(-193.017 -4.788)" fill="none" stroke="#707070" stroke-miterlimit="10" stroke-width="1"/>
      <path id="Tracé_5" data-name="Tracé 5" d="M157.669,81.3a15.314,15.314,0,0,0-29.54-5.669,39.471,39.471,0,0,0-14.938-3.458c-.441-.015-.884-.022-1.327-.022s-.879,0-1.315.022a39.6,39.6,0,0,0-38.3,37.99c-.025.543-.035,1.088-.035,1.636,0,.383,0,.764.017,1.143A39.411,39.411,0,0,0,75.6,127.856a15.314,15.314,0,1,0,19.917,20.069,39.422,39.422,0,0,0,14.888,3.486q.732.027,1.466.027t1.466-.027a39.615,39.615,0,0,0,38.151-38.47c.012-.378.017-.759.017-1.143,0-.471,0-.941-.025-1.409a39.473,39.473,0,0,0-3.456-14.861A15.316,15.316,0,0,0,157.669,81.3Zm-45.81,60.748c0-16.843-11.042-30.5-27.884-30.5,16.34,0,27.065-12.852,27.847-29a30.5,30.5,0,0,0,27.74,29.129A30.5,30.5,0,0,0,111.859,142.048Z" transform="translate(-50.858 -50.549)" fill="none" stroke="#707070" stroke-miterlimit="10" stroke-width="1"/>
      <path id="Tracé_6" data-name="Tracé 6" d="M315.42,283.7a30.5,30.5,0,0,1-59.53,9.371,39.616,39.616,0,0,0,38.164-38.478A30.511,30.511,0,0,1,315.42,283.7Z" transform="translate(-193.423 -192.198)" fill="none" stroke="#707070" stroke-miterlimit="10" stroke-width="1"/>
      <path id="Tracé_7" data-name="Tracé 7" d="M345.145,328.691a15.314,15.314,0,0,1-29.455,5.878,39.783,39.783,0,0,0,19.9-20.069A15.317,15.317,0,0,1,345.145,328.691Z" transform="translate(-238.334 -237.192)" fill="none" stroke="#707070" stroke-miterlimit="10" stroke-width="1"/>
      <path id="Tracé_8" data-name="Tracé 8" d="M95.542,75.645a39.807,39.807,0,0,0-19.9,19.9,15.314,15.314,0,1,1,19.9-19.9Z" transform="translate(-50.811 -50.563)" fill="none" stroke="#707070" stroke-miterlimit="10" stroke-width="1"/>
      <path id="Tracé_9" data-name="Tracé 9" d="M64.527,293.068A30.5,30.5,0,1,1,26.363,254.59a39.411,39.411,0,0,0,3.371,14.916,15.314,15.314,0,1,0,19.917,20.069A39.426,39.426,0,0,0,64.527,293.068Z" transform="translate(-4.992 -192.198)" fill="none" stroke="#707070" stroke-miterlimit="10" stroke-width="1"/>
      <path id="Tracé_10" data-name="Tracé 10" d="M64.668,25.609A39.6,39.6,0,0,0,26.37,63.6a30.5,30.5,0,1,1,38.3-37.99Z" transform="translate(-4.982 -3.985)" fill="none" stroke="#707070" stroke-miterlimit="10" stroke-width="1"/>
    </g>
  </g>
</svg>
