<svg id="Lion_coloré" data-name="Lion coloré" xmlns="http://www.w3.org/2000/svg" viewBox="0 0 364.56 415.94"><defs><style>.cls-1{fill:#7d9ed2;}.cls-2{fill:#2b2b2b;}.cls-3{fill:#5d3e7d;}.cls-4{fill:#5d3f7e;}.cls-5{fill:#7a4f9a;}.cls-6{fill:#7a509b;}.cls-7{fill:#9c7fb9;}.cls-8{fill:#9b7fb9;}</style></defs><path id="Triangle_bleu" data-name="Triangle bleu" class="cls-1" d="M93,204.85l15.57-23.56,40.34-4Zm16.72-21.67-11,16.61,39.41-19.42Z" transform="translate(-67.47 -41.87)"/><path id="Triangle_bleu_3" data-name="Triangle bleu 3" class="cls-1" d="M135.26,355.77l-67.79-2.48L83.8,336.15l.28-.07,74.53-19ZM72,351.45l62.18,2.28,20.22-33.49L84.85,338Z" transform="translate(-67.47 -41.87)"/><path id="Triangle_bleu_2" data-name="Triangle bleu 2" class="cls-1" d="M314.62,457.81,291.14,445l.9-.94c3.68-3.82,32.81-43.46,33.1-43.86l2.78-3.77Zm-20.28-13.36,18.89,10.32L324,405.14C317,414.57,299.24,438.61,294.34,444.45Z" transform="translate(-67.47 -41.87)"/><path id="Triangle_bleu_1" data-name="Triangle bleu 1" class="cls-1" d="M276.1,118.7,221,93.68l5.34.3c6.46.37,16.45.87,20,.9l-.17-.39,1.84.31c6.93,1.14,24,19.48,24.73,20.26ZM231.52,96.27l36.13,16.4c-6.07-6.14-15.72-15.13-19.94-15.89C246.31,97,242.53,96.87,231.52,96.27Z" transform="translate(-67.47 -41.87)"/><g id="Museau_yeux" data-name="Museau + yeux"><path class="cls-2" d="M226.62,224.34l2.87-11.75s2-.49,10.23,0c-.15.51,16.37,16.65,16.37,16.65l-4.1,8.81s-17.34-6.9-13.38-24.85Z" transform="translate(-67.47 -41.87)"/><polygon class="cls-2" points="255.41 183.34 279.86 188.83 298.38 200.31 288.38 184.54 255.41 183.34"/><path class="cls-2" d="M396.1,262.43c.36.61,21,16.76,21,16.76v3.39l-16.63,22.34-39.21,16.39,38.36-9.83,8.86,7.77L405,309.05l19.79-29.62,7.28-12Z" transform="translate(-67.47 -41.87)"/></g><g id="Fourrure_foncé" data-name="Fourrure foncé"><path class="cls-3" d="M295.73,168.28s38.81,4.76,70,30.12c.34.17,2.72-11.57-31.66-47.32-.85,0-7.32-42.38-73.53-52.93.34.85,25.87,18.72,19.74,26.89-.17-.34-34.38-17.53-34.38-17.53s-2.56-1.53-9-2.21c.34,0-77.11,19.4-77.11,19.4l32,2.21L108.5,175.08,172.84,171,99,207.77,146.28,252,92.5,279.94,78.2,330l93.27-22.13-35.74,63.32,86.29-64,55-11.92,4.76-6.12-18-18.73,9.87-8.17-3.06-3.06-23.15-2.72-32.34-29.28S214.37,205,228,200.28c.68.68,24.17,4.42,24.17,4.42S275.3,177.47,295.73,168.28Z" transform="translate(-67.47 -41.87)"/><path class="cls-3" d="M122.79,413.72l110.64-96.34L259,311.25h16l22.81-6.46-16.68,25.53,11.24,4.76s28.25,5.11,42.21,5.45c1.7.34,35.74,16.68,35.74,16.68s12.94-.68,19.07-2.72c.68-.68-10.56,15.32-16.34,16.68-.34-.34-15.66-7.49-15.66-7.49l-8.17,20.43,16.67,36.08-6.46,26.89S357,425,356.67,423.94s-25.88-14.3-25.2-19.07,6.81-31.66,6.81-31.66l-54.12,73.87H176.24l87.49-27.91,4.43-18.38-94,7.83L243,375.94l-26.21-10.22Z" transform="translate(-67.47 -41.87)"/><polygon class="cls-4" points="256.49 39.37 231.2 8.14 194.88 25.33 179.67 0 169.42 44.99 224.24 51.57 270.95 68.13 281.17 23.13 256.49 39.37"/></g><g id="Fourrure_moyenne" data-name="Fourrure moyenne"><path class="cls-5" d="M236.84,105.3s5.23.43,7.81,1.67L280.24,125l-88.51,1.87Z" transform="translate(-67.47 -41.87)"/><polygon class="cls-6" points="124.26 85.04 70.86 131.32 105.37 129.14 140.5 126.92 124.26 85.04"/><polygon class="cls-6" points="140.5 188.36 78.81 210.15 105.37 129.14 140.5 188.36"/><polygon class="cls-6" points="10.73 288.11 78.81 210.15 154.55 265.3 104 265.98 10.73 288.11"/><polygon class="cls-6" points="165.96 275.51 204.32 294.84 149.28 323.85 165.96 275.51"/><polygon class="cls-6" points="149.28 323.85 221.35 309.21 200.69 358.92 175.5 334.06 149.28 323.85"/><polygon class="cls-6" points="196.26 377.3 270.81 331.34 216.69 405.21 196.26 377.3"/><polygon class="cls-6" points="302.81 315.34 282.82 305.83 289.88 321.81 305.6 329.3 302.81 315.34"/><path class="cls-6" d="M331.47,404.87l29,3.75-3.83,14.8S330.53,409.86,331.47,404.87Z" transform="translate(-67.47 -41.87)"/><path class="cls-5" d="M272.45,108.51l10.22-5S295,108,300.32,111.16C300.42,111.22,272.45,108.51,272.45,108.51Z" transform="translate(-67.47 -41.87)"/><polygon class="cls-5" points="194.91 25.31 171.4 36.7 177.16 10.95 194.91 25.31"/><polygon class="cls-5" points="256.49 39.37 272.86 59.73 278.68 33.99 256.49 39.37"/><polygon class="cls-5" points="194.91 25.31 224.24 51.57 256.49 39.37 230.2 17.47 194.91 25.31"/></g><g id="Fourrure_claire" data-name="Fourrure claire"><polygon class="cls-7" points="92.26 82.83 124.26 85.04 169.37 63.43 92.26 82.83"/><path class="cls-8" d="M99,207.74s47.53,47,47.71,44.28,26.17-81,26.17-81Z" transform="translate(-67.47 -41.87)"/><polygon class="cls-8" points="25.03 238.06 10.73 288.11 78.81 210.15 25.03 238.06"/><polygon class="cls-8" points="165.96 275.51 149.28 323.85 55.32 371.85 165.96 275.51"/><polygon class="cls-8" points="104 265.98 154.55 265.3 68.26 329.3 104 265.98"/><polygon class="cls-8" points="175.5 334.06 106.73 366.75 200.69 358.92 175.5 334.06"/><polygon class="cls-8" points="196.26 377.3 216.69 405.21 108.77 405.21 196.26 377.3"/><polygon class="cls-8" points="289.2 382.06 293.03 366.75 298.38 378.32 291.92 405.21 289.2 382.06"/><polygon class="cls-8" points="41.03 133.21 70.86 131.32 124.26 85.04 41.03 133.21"/><path class="cls-8" d="M370.28,357.21l2.78,14s2.26,1.7,16.69-16.68Z" transform="translate(-67.47 -41.87)"/><path class="cls-7" d="M260.5,98.15s11.41,9.41,11.95,10.36c.09.09,10.22-5,10.22-5A147,147,0,0,0,260.5,98.15Z" transform="translate(-67.47 -41.87)"/><polygon class="cls-8" points="177.18 10.94 194.88 25.33 179.67 0 177.18 10.94"/><polygon class="cls-8" points="278.68 33.99 256.5 39.3 281.17 23.05 278.68 33.99"/><polygon class="cls-8" points="194.88 25.33 230.2 17.47 256.49 39.37 231.2 8.14 194.88 25.33"/></g></svg>